<svg xmlns="http://www.w3.org/2000/svg" viewBox="0 0 32 32" x="0px" y="0px"><title>dashboard_2</title><desc>interface essential</desc><metadata><?xpacket begin="&#65279;" id="W5M0MpCehiHzreSzNTczkc9d"?><x:xmpmeta xmlns:x="adobe:ns:meta/" x:xmptk="Adobe XMP Core 5.6-c148 79.163858, 2019/03/06-03:18:36        "/><?xpacket end="w"?></metadata><g data-name="dashboard"><path d="M27,3H5A2,2,0,0,0,3,5V27a2,2,0,0,0,2,2H27a2,2,0,0,0,2-2V5A2,2,0,0,0,27,3ZM15,25a1,1,0,0,1-1,1H7a1,1,0,0,1-1-1V21a1,1,0,0,1,1-1h7a1,1,0,0,1,1,1Zm0-7a1,1,0,0,1-1,1H7a1,1,0,0,1-1-1V7A1,1,0,0,1,7,6h7a1,1,0,0,1,1,1Zm11,7a1,1,0,0,1-1,1H18a1,1,0,0,1-1-1V14a1,1,0,0,1,1-1h7a1,1,0,0,1,1,1Zm0-14a1,1,0,0,1-1,1H18a1,1,0,0,1-1-1V7a1,1,0,0,1,1-1h7a1,1,0,0,1,1,1Z"/></g><text x="0" y="47" fill="#000000" font-size="5px" font-weight="bold" font-family="'Helvetica Neue', Helvetica, Arial-Unicode, Arial, Sans-serif">Created by Kawalan Icon</text><text x="0" y="52" fill="#000000" font-size="5px" font-weight="bold" font-family="'Helvetica Neue', Helvetica, Arial-Unicode, Arial, Sans-serif">from the Noun Project</text></svg>